<?xml version="1.0" standalone="no"?>
<!DOCTYPE svg PUBLIC "-//W3C//DTD SVG 20010904//EN"
 "http://www.w3.org/TR/2001/REC-SVG-20010904/DTD/svg10.dtd">
<svg version="1.0" xmlns="http://www.w3.org/2000/svg"
 width="163.000000pt" height="52.000000pt" viewBox="0 0 163.000000 52.000000"
 preserveAspectRatio="xMidYMid meet">

<g transform="translate(0.000000,52.000000) scale(0.100000,-0.100000)"
fill="#000000" stroke="none">
<path d="M126 393 c-55 -56 -97 -106 -93 -109 4 -4 16 1 27 11 l21 19 -3 -150
-3 -149 -35 -6 c-19 -4 332 -6 780 -5 l815 1 -772 2 -772 3 -3 158 -3 157 73
75 72 75 95 -100 c52 -55 95 -93 95 -85 0 9 -44 58 -97 111 l-98 95 -99 -103z"/>
<path d="M300 475 c1 -17 187 -210 196 -202 4 4 -38 54 -94 110 -56 56 -102
97 -102 92z"/>
<path d="M466 356 c55 -57 103 -101 108 -99 9 6 -183 203 -197 203 -5 0 35
-47 89 -104z"/>
<path d="M190 350 c0 -13 7 -20 20 -20 13 0 20 7 20 20 0 13 -7 20 -20 20 -13
0 -20 -7 -20 -20z"/>
<path d="M240 350 c0 -13 7 -20 20 -20 13 0 20 7 20 20 0 13 -7 20 -20 20 -13
0 -20 -7 -20 -20z"/>
<path d="M190 295 c0 -18 5 -25 20 -25 15 0 20 7 20 25 0 18 -5 25 -20 25 -15
0 -20 -7 -20 -25z"/>
<path d="M240 295 c0 -18 5 -25 20 -25 15 0 20 7 20 25 0 18 -5 25 -20 25 -15
0 -20 -7 -20 -25z"/>
<path d="M270 163 l-1 -48 -37 43 c-20 23 -40 42 -44 42 -5 0 -7 -26 -6 -57
l2 -58 3 48 c2 27 8 47 12 45 5 -2 25 -23 45 -46 l36 -44 0 61 c0 34 -2 61 -5
61 -3 0 -5 -21 -5 -47z"/>
<path d="M664 197 c-3 -8 -3 -36 -1 -63 l3 -49 2 53 2 52 40 0 c33 0 40 -3 40
-20 0 -16 -7 -20 -30 -20 -37 0 -37 -5 -2 -35 33 -30 52 -33 27 -5 -18 19 -18
21 -1 33 11 8 17 23 14 38 -3 21 -9 24 -46 27 -30 2 -44 -1 -48 -11z"/>
<path d="M1087 203 c-12 -11 -8 -88 5 -101 14 -14 78 -16 78 -2 0 6 -18 10
-40 10 l-40 0 0 40 0 40 40 0 c22 0 40 5 40 10 0 11 -73 14 -83 3z"/>
<path d="M1311 198 c0 -10 -8 -18 -16 -18 -8 0 -15 -4 -15 -10 0 -5 6 -10 14
-10 10 0 16 -13 19 -37 l4 -38 1 38 c1 25 7 37 17 37 8 0 15 5 15 10 0 6 -6
10 -14 10 -8 0 -17 8 -19 18 -4 16 -5 16 -6 0z"/>
<path d="M1491 198 c0 -10 -8 -18 -16 -18 -8 0 -15 -4 -15 -10 0 -5 6 -10 14
-10 10 0 16 -13 19 -37 l4 -38 1 38 c1 25 7 37 17 37 8 0 15 5 15 10 0 6 -6
10 -14 10 -8 0 -17 8 -19 18 -4 16 -5 16 -6 0z"/>
<path d="M317 173 c-4 -3 -7 -21 -7 -39 0 -28 5 -35 25 -40 15 -4 32 -1 40 6
18 15 20 51 3 68 -13 13 -50 16 -61 5z m63 -38 c0 -21 -5 -25 -30 -25 -25 0
-30 4 -30 25 0 21 5 25 30 25 25 0 30 -4 30 -25z"/>
<path d="M412 143 c-1 -23 2 -44 7 -47 11 -7 71 41 71 56 0 6 -9 -1 -21 -16
-29 -37 -47 -33 -52 12 l-4 37 -1 -42z"/>
<path d="M550 171 c18 -5 26 -15 28 -34 3 -24 0 -27 -27 -27 -17 0 -31 5 -31
10 0 6 9 10 20 10 11 0 20 5 20 10 0 6 -4 10 -9 10 -44 0 -57 -46 -16 -56 31
-8 55 10 55 40 0 28 -18 46 -44 45 -18 -1 -17 -2 4 -8z"/>
<path d="M797 173 c-3 -5 10 -8 28 -8 18 0 31 3 28 8 -2 4 -15 7 -28 7 -13 0
-26 -3 -28 -7z"/>
<path d="M920 171 c18 -5 26 -15 28 -34 3 -24 0 -27 -27 -27 -17 0 -31 5 -31
10 0 6 9 10 20 10 11 0 20 5 20 10 0 15 -26 12 -40 -5 -10 -12 -10 -18 0 -30
27 -33 70 -10 70 36 0 27 -16 40 -48 38 -10 -1 -6 -4 8 -8z"/>
<path d="M1202 168 c-15 -15 3 -38 29 -38 11 0 19 -4 19 -10 0 -5 -13 -10 -30
-10 -16 0 -30 -4 -30 -10 0 -12 40 -13 58 -1 23 14 9 45 -23 52 l-30 7 28 1
c15 0 27 6 27 11 0 14 -33 13 -48 -2z"/>
<path d="M1400 171 c18 -5 26 -15 28 -34 3 -24 0 -27 -27 -27 -17 0 -31 5 -31
10 0 6 9 10 20 10 11 0 20 5 20 10 0 15 -26 12 -40 -6 -19 -22 9 -49 44 -40
22 5 26 12 26 40 0 34 -14 47 -48 45 -10 -1 -6 -4 8 -8z"/>
<path d="M1557 173 c-14 -13 -7 -71 9 -77 23 -9 34 -7 34 4 0 6 -9 10 -21 10
-16 0 -20 5 -17 28 2 21 8 27 27 27 32 0 40 -25 9 -26 -18 -1 -19 -2 -4 -6 26
-7 42 12 26 32 -13 15 -51 21 -63 8z"/>
<path d="M1110 150 c0 -5 11 -10 25 -10 14 0 25 5 25 10 0 6 -11 10 -25 10
-14 0 -25 -4 -25 -10z"/>
<path d="M823 133 c9 -2 23 -2 30 0 6 3 -1 5 -18 5 -16 0 -22 -2 -12 -5z"/>
<path d="M790 110 c0 -8 25 -20 41 -20 20 0 7 18 -16 22 -14 3 -25 2 -25 -2z"/>
<path d="M990 111 c0 -5 5 -13 10 -16 6 -3 10 -2 10 4 0 5 -4 13 -10 16 -5 3
-10 2 -10 -4z"/>
</g>
</svg>
